<svg id="Слой_1" data-name="Слой 1" xmlns="http://www.w3.org/2000/svg" viewBox="0 0 578.79 286.89"><defs><style>.cls-1{fill:#f8e94b;}.cls-2{fill:#fae613;}.cls-3{fill:#1d1d1b;}.cls-4{fill:#cbcbce;}.cls-5{fill:#bbbec3;}</style></defs><rect class="cls-1" y="70.47" width="140.95" height="70.47"/><rect class="cls-2" width="140.95" height="70.47"/><path class="cls-3" d="M123.48,84.62a52.38,52.38,0,0,1-5.35,18.15,43.27,43.27,0,0,1-10.62,13.35,44.43,44.43,0,0,1-15.28,8.18,64.1,64.1,0,0,1-19.34,2.77,65.66,65.66,0,0,1-23.65-4A47.37,47.37,0,0,1,31.8,111.77a47.9,47.9,0,0,1-10.7-17.7A69.46,69.46,0,0,1,17.47,71,65.09,65.09,0,0,1,21.35,48a50.43,50.43,0,0,1,11-17.7,49.2,49.2,0,0,1,17.44-11.4,62.39,62.39,0,0,1,23-4.05,67.16,67.16,0,0,1,18,2.33A48.6,48.6,0,0,1,105.78,24a38.32,38.32,0,0,1,10.62,11,37.63,37.63,0,0,1,5.35,15.07h-20q-1.89-10.2-9.23-14.7t-19.6-4.5A37.36,37.36,0,0,0,57.09,34a30.18,30.18,0,0,0-11,8.4,34.81,34.81,0,0,0-6.39,12.67A58.46,58.46,0,0,0,37.67,71a62.39,62.39,0,0,0,2,16.35A34.57,34.57,0,0,0,45.87,100a27.41,27.41,0,0,0,10.88,8.17A40.89,40.89,0,0,0,72.89,111q13.47,0,20.89-6.52t9.5-19.88Z"/><rect class="cls-4" x="145.95" y="70.47" width="140.95" height="70.47"/><rect class="cls-5" x="145.95" width="140.95" height="70.47"/><path class="cls-3" d="M265.89,94.37q0,15.75-11.23,23.1t-33.49,7.35H172V17.12h49.21a83,83,0,0,1,16.4,1.5,37.81,37.81,0,0,1,12.69,4.8,23.39,23.39,0,0,1,8.2,8.63,26.48,26.48,0,0,1,2.94,13A27.16,27.16,0,0,1,258,58.9q-3.37,5.77-10.79,9.67a28.23,28.23,0,0,1,13.55,8.85Q265.88,83.57,265.89,94.37ZM241.2,47q0-6.6-4.75-10t-15.28-3.45h-29v27h29q11,0,15.54-3.45T241.2,47Zm4.48,45.75Q245.68,77,221.17,77h-29v31.5h29q11.57,0,18-3.6T245.68,92.72Z"/><rect class="cls-4" x="291.89" y="70.47" width="140.95" height="70.47"/><rect class="cls-5" x="291.89" width="140.95" height="70.47"/><path class="cls-3" d="M418,71a62.1,62.1,0,0,1-4.32,23.93,51,51,0,0,1-11.82,17.62,49.58,49.58,0,0,1-17.7,10.88,66.55,66.55,0,0,1-43.59,0,49.56,49.56,0,0,1-17.61-10.88A51.14,51.14,0,0,1,311.09,94.9,62.1,62.1,0,0,1,306.77,71a62,62,0,0,1,4.32-23.92,51.18,51.18,0,0,1,11.83-17.63,49.54,49.54,0,0,1,17.61-10.87,66.38,66.38,0,0,1,43.59,0,49.56,49.56,0,0,1,17.7,10.87,51,51,0,0,1,11.82,17.63A62,62,0,0,1,418,71Zm-20.37,0a53.22,53.22,0,0,0-2.42-16.65,35.23,35.23,0,0,0-7-12.52,30.65,30.65,0,0,0-11.05-7.95,40.57,40.57,0,0,0-29.52,0,30.57,30.57,0,0,0-11.05,7.95,35.1,35.1,0,0,0-7,12.52A53.23,53.23,0,0,0,327.15,71a53.23,53.23,0,0,0,2.41,16.65,35.14,35.14,0,0,0,7,12.53,30.57,30.57,0,0,0,11.05,7.95,40.71,40.71,0,0,0,29.52,0,30.65,30.65,0,0,0,11.05-7.95,35.28,35.28,0,0,0,7-12.53A53.22,53.22,0,0,0,397.59,71Z"/><rect class="cls-4" x="437.84" y="70.47" width="140.95" height="70.47"/><rect class="cls-5" x="437.84" width="140.95" height="70.47"/><path class="cls-3" d="M556.74,124.82h-20.2V80.72H506.67q-6.39,0-10,2.18a15.15,15.15,0,0,0-5.61,5.77,25.48,25.48,0,0,0-2.76,8.4q-.78,4.8-1.3,10.05a42.07,42.07,0,0,1-1.81,8.33q-1.47,4.72-3.37,9.37H459.89A90,90,0,0,0,466,109.75a59.39,59.39,0,0,0,2.51-13.58q.69-9.75,4.14-15.22a22.15,22.15,0,0,1,10.71-8.48,29.92,29.92,0,0,1-12.26-9.37,24.14,24.14,0,0,1-5-15.38,29.62,29.62,0,0,1,3-13.87,25.54,25.54,0,0,1,8.46-9.45,37.12,37.12,0,0,1,12.78-5.33,73.59,73.59,0,0,1,16.14-1.65h50.24Zm-20.2-60.45V33.77H507.37q-9.67,0-15.37,3.45t-5.7,11.85q0,8.55,5.61,11.93t15.46,3.37Z"/><rect class="cls-4" x="145.95" y="216.42" width="140.95" height="70.47"/><rect class="cls-5" x="145.95" y="145.95" width="140.95" height="70.47"/><path class="cls-3" d="M256.65,179.42H196.57v91.35H176.19V163.07h80.46Z"/><rect class="cls-4" x="291.89" y="216.42" width="140.95" height="70.47"/><rect class="cls-5" x="291.89" y="145.95" width="140.95" height="70.47"/><path class="cls-3" d="M406.74,195.17q0,17-10.7,24.52t-29.53,7.58H338.2v43.5H318V163.07h48.51q19,0,29.61,7.65T406.74,195.17Zm-20.2,0q0-9-6-12.38t-16.41-3.37H338.2v31.5h25.89q10.37,0,16.41-3.38T386.54,195.17Z"/><rect class="cls-4" x="437.84" y="216.42" width="140.95" height="70.47"/><rect class="cls-5" x="437.84" y="145.95" width="140.95" height="70.47"/><path class="cls-3" d="M561.49,270.77H539.74l-10.88-28.35H487.77l-10.88,28.35H455.14l43.51-107.7H518Zm-38.84-44.7-14.33-37.65L494,226.07Z"/><rect class="cls-4" y="216.42" width="140.95" height="70.47"/><rect class="cls-5" y="145.95" width="140.95" height="70.47"/><path class="cls-3" d="M117.87,270.77h-20v-70.5l-54.73,60.6v9.9h-20V163.07h20v70.35L97.84,173v-9.9h20Z"/></svg>