<?xml version="1.0" encoding="utf-8"?>
<!-- Generator: Adobe Illustrator 26.3.1, SVG Export Plug-In . SVG Version: 6.00 Build 0)  -->
<svg version="1.1" id="Слой_1" xmlns="http://www.w3.org/2000/svg" xmlns:xlink="http://www.w3.org/1999/xlink" x="0px" y="0px"
	 viewBox="0 0 512 512" style="enable-background:new 0 0 512 512;" xml:space="preserve">
<style type="text/css">
	.st0{fill:none;stroke:#808080;stroke-width:20;stroke-miterlimit:10;}
	.st1{fill:#808080;}
</style>
<circle class="st0" cx="256" cy="256" r="240.61"/>
<g>
	<g>
		<path class="st1" d="M255.8,341.4c-4.54,0-8.27-1.46-11.2-4.4c-2.94-2.93-4.4-6.8-4.4-11.6c0-10.66,2.6-22.13,7.8-34.4
			c5.2-12.26,12.46-22.8,21.8-31.6c8.26-7.73,16.13-15.2,23.6-22.4c7.46-7.2,13.53-15.2,18.2-24c4.66-8.8,7-19.86,7-33.2
			c0-10.4-2.54-19.93-7.6-28.6c-5.07-8.66-12.2-15.53-21.4-20.6c-9.2-5.06-19.94-7.6-32.2-7.6c-13.34,0-24.8,2.74-34.4,8.2
			c-9.6,5.47-17,13-22.2,22.6c-5.2,9.6-7.8,20.67-7.8,33.2c0,4.54-1.4,8.2-4.2,11s-6.47,4.2-11,4.2c-4.54,0-8.27-1.4-11.2-4.2
			c-2.94-2.8-4.4-6.46-4.4-11c0-18.4,4-34.6,12-48.6s19.13-25,33.4-33c14.26-8,30.86-12,49.8-12c17.6,0,33.33,3.8,47.2,11.4
			c13.86,7.6,24.8,18,32.8,31.2s12,28.34,12,45.4c0,14.94-2.67,27.6-8,38c-5.34,10.4-12.34,19.94-21,28.6
			c-8.67,8.67-18.2,17.8-28.6,27.4c-8.27,7.47-13.74,15.87-16.4,25.2c-2.67,9.34-4,17.6-4,24.8c0,4.8-1.47,8.67-4.4,11.6
			C264.06,339.93,260.33,341.4,255.8,341.4z M255.8,412.2c-6.67,0-12.2-2.26-16.6-6.8c-4.4-4.53-6.6-10-6.6-16.4
			c0-6.66,2.26-12.26,6.8-16.8c4.53-4.53,10-6.8,16.4-6.8c6.4,0,11.93,2.27,16.6,6.8c4.66,4.54,7,10.14,7,16.8
			c0,6.4-2.34,11.87-7,16.4C267.73,409.93,262.2,412.2,255.8,412.2z"/>
	</g>
</g>
</svg>
