<svg id="Слой_1" data-name="Слой 1" xmlns="http://www.w3.org/2000/svg" viewBox="0 0 509.89 509.89"><defs><style>.cls-1{fill:#f8e848;}.cls-2{fill:#fae60f;}.cls-3{fill:none;stroke:#1d1d1b;stroke-miterlimit:10;stroke-width:4px;}</style></defs><rect class="cls-1" x="1.17" y="254.95" width="505.89" height="252.95"/><rect class="cls-2" x="2" y="2" width="505.89" height="252.95"/><rect class="cls-3" x="2" y="2" width="505.89" height="505.89"/><path d="M264.89,50.52c44.78.5,85.95,6.95,122.67,30.47,30.65,19.64,51.4,46.63,59.78,82.43,3.28,14,2.37,15.14-11.64,15.21-13.09.06-26.17-.07-39.26,0-4.8,0-8.41-1-9.88-6.34-11.46-41.76-42-61.47-81.89-69.9C273.89,95.9,243,96.3,213,105.86c-42.54,13.54-69.58,43.21-82.21,85.36-11.09,37-12.57,75-3.53,112.72C144.79,377,204.58,418.27,279.5,410.35c28.27-3,54.2-11.41,76.17-30.08,20.59-17.52,32.61-39.72,34.82-66.61.69-8.42,3.79-10.71,11.63-10.43,13.08.47,26.19.51,39.26,0,8.65-.34,11.77,1.67,10.58,11.36-8.21,66.62-46.78,108.76-107.9,130.74-54.3,19.53-109.94,19.31-164.55.5-50.87-17.52-86.43-52.67-105.9-102.47C52.12,288.39,50,231.6,69.1,175.81,95.71,98.19,154.84,61.41,233.82,52.33c9.05-1,18.19-1.25,27.3-1.79A35.62,35.62,0,0,1,264.89,50.52Z"/></svg>